<svg xmlns="http://www.w3.org/2000/svg" xmlns:xlink="http://www.w3.org/1999/xlink" version="1.1" x="0px" y="0px" viewBox="0 0 32 40" enable-background="new 0 0 32 32" xml:space="preserve"><g display="none"><rect x="-134.545" y="-7.333" display="inline" fill="#000000" width="421.212" height="207"/></g><g display="none"><circle display="inline" fill="#000000" cx="15.984" cy="16" r="16"/><g display="inline"><g><path fill="#000000" d="M21.172,8.5c1.493,0,2.905,0.322,4.203,0.957v13.707c-0.957-0.37-2.584-0.854-4.534-0.854     c-1.712,0-3.339,0.374-4.841,1.113c-1.502-0.739-3.129-1.113-4.841-1.113c-1.95,0-3.577,0.485-4.534,0.854V9.458     C7.922,8.822,9.334,8.5,10.828,8.5c2.751,0,4.857,1.105,4.877,1.115L16,9.773l0.295-0.157C16.316,9.605,18.421,8.5,21.172,8.5      M21.172,7.875c-2.957,0-5.172,1.19-5.172,1.19s-2.216-1.189-5.172-1.19c-1.485,0-3.156,0.3-4.828,1.201v15.049     c0,0,2.196-1.19,5.159-1.19c1.482,0,3.154,0.297,4.841,1.19c1.686-0.892,3.359-1.19,4.841-1.19c2.963,0,5.159,1.19,5.159,1.19     V9.076C24.329,8.175,22.657,7.875,21.172,7.875L21.172,7.875z"/></g><g><rect x="15.687" y="9.611" fill="#000000" width="0.625" height="13.906"/></g><g><path fill="#000000" d="M13.734,15.788h-1.12l-0.445-1.158h-2.038l-0.421,1.158H8.619l1.985-5.098h1.089L13.734,15.788z      M11.839,13.771l-0.703-1.892l-0.688,1.892H11.839z"/></g><g><path fill="#000000" d="M18.717,15.306h2.037c0.403,0,0.704,0.017,0.903,0.05c0.198,0.034,0.375,0.104,0.532,0.211     c0.157,0.107,0.287,0.248,0.391,0.426c0.104,0.177,0.157,0.376,0.157,0.596c0,0.239-0.065,0.458-0.193,0.657     c-0.129,0.2-0.303,0.349-0.524,0.449c0.311,0.09,0.549,0.245,0.717,0.463c0.167,0.218,0.25,0.474,0.25,0.768     c0,0.232-0.054,0.457-0.162,0.676c-0.107,0.219-0.255,0.394-0.441,0.525c-0.187,0.131-0.417,0.212-0.69,0.242     c-0.172,0.019-0.586,0.031-1.241,0.035h-1.735V15.306z M19.746,16.155v1.179h0.674c0.401,0,0.651-0.005,0.748-0.017     c0.176-0.021,0.315-0.082,0.416-0.182s0.151-0.234,0.151-0.399c0-0.157-0.043-0.286-0.131-0.384     c-0.087-0.098-0.216-0.158-0.388-0.179c-0.102-0.011-0.396-0.017-0.88-0.017H19.746z M19.746,18.183v1.363h0.953     c0.371,0,0.606-0.01,0.706-0.031c0.153-0.028,0.278-0.096,0.374-0.204c0.096-0.107,0.145-0.252,0.145-0.433     c0-0.153-0.037-0.283-0.112-0.389c-0.074-0.107-0.181-0.184-0.322-0.233s-0.444-0.073-0.912-0.073H19.746z"/></g></g></g><g display="none"><g display="inline"><path d="M24.276,4c2.39,0,4.649,0.515,6.724,1.532v21.932c-1.531-0.592-4.134-1.367-7.255-1.367c-2.739,0-5.342,0.599-7.745,1.781    c-2.404-1.182-5.007-1.781-7.745-1.781c-3.12,0-5.723,0.775-7.255,1.367V5.532C3.076,4.515,5.335,4,7.724,4    c4.401,0,7.771,1.767,7.803,1.784L16,6.036l0.472-0.251C16.505,5.767,19.874,4,24.276,4 M24.276,3C19.545,3,16,4.903,16,4.903    S12.454,3,7.724,3C5.349,3,2.675,3.48,0,4.922V29c0,0,3.514-1.903,8.255-1.903c2.371,0,5.047,0.476,7.745,1.903    c2.698-1.427,5.375-1.903,7.745-1.903C28.486,27.097,32,29,32,29V4.922C29.326,3.48,26.651,3,24.276,3L24.276,3z"/></g><line display="inline" fill="none" stroke="#000000" stroke-miterlimit="10" x1="16" y1="5.778" x2="16" y2="28.027"/><text transform="matrix(1 0 0 1 4.1904 15.6611)" display="inline" font-family="'Arial-BoldMT'" font-size="11.3948px">A</text><text transform="matrix(1 0 0 1 19.5126 23.0471)" display="inline" font-family="'Arial-BoldMT'" font-size="11.3948px">B</text></g><g><path d="M16,29c2.698-1.427,5.375-1.903,7.745-1.903C28.486,27.097,32,29,32,29V4.922C29.326,3.48,26.651,3,24.276,3   C19.545,3,16,4.903,16,4.903S12.454,3,7.724,3C5.349,3,2.675,3.48,0,4.922V29c0,0,3.514-1.903,8.255-1.903   C10.625,27.097,13.302,27.572,16,29z M31.5,5.224v22.985c-1.294-0.566-4.169-1.612-7.755-1.612c-2.651,0-5.168,0.583-7.495,1.722   V5.337C16.41,5.253,19.822,3.5,24.276,3.5C26.85,3.5,29.279,4.08,31.5,5.224z M0.5,5.224C2.721,4.08,5.15,3.5,7.724,3.5   c4.453,0,7.866,1.753,8.026,1.837v22.981c-2.327-1.139-4.845-1.722-7.495-1.722c-3.585,0-6.461,1.046-7.755,1.612V5.224z"/></g><g display="none"><g display="inline"><path d="M24.276,5C26.297,5,28.218,5.393,30,6.171v19.892c-1.612-0.499-3.782-0.966-6.255-0.966c-2.727,0-5.327,0.562-7.745,1.673    c-2.418-1.111-5.019-1.673-7.745-1.673c-2.472,0-4.643,0.467-6.255,0.966V6.171C3.783,5.393,5.703,5,7.724,5    c4.129,0,7.304,1.652,7.33,1.665l0.944,0.5l0.942-0.497C16.972,6.652,20.146,5,24.276,5 M24.276,3C19.545,3,16,4.903,16,4.903    S12.454,3,7.724,3C5.349,3,2.675,3.48,0,4.922V29c0,0,3.514-1.903,8.255-1.903c2.371,0,5.047,0.476,7.745,1.903    c2.698-1.427,5.375-1.903,7.745-1.903C28.486,27.097,32,29,32,29V4.922C29.326,3.48,26.651,3,24.276,3L24.276,3z"/></g><line display="inline" fill="none" stroke="#000000" stroke-width="2" stroke-miterlimit="10" x1="16" y1="5.778" x2="16" y2="28.027"/><text transform="matrix(1 0 0 1 4.1904 15.6611)" display="inline" fill="#000000" font-family="'Arial-BoldMT'" font-size="11.3948px">A</text><text transform="matrix(1 0 0 1 19.5126 23.0471)" display="inline" fill="#000000" font-family="'Arial-BoldMT'" font-size="11.3948px">B</text></g><g display="none"><path display="inline" fill="#000000" d="M16,4.903c0,0-8-4.295-16,0.019V29c0,0,7.906-4.282,16,0c8.094-4.282,16,0,16,0V4.922   C24,0.608,16,4.903,16,4.903z"/><g display="inline"><defs><path id="d" d="M16,4.903c0,0-8-4.295-16,0.019V29c0,0,7.906-4.282,16,0c8.094-4.282,16,0,16,0V4.922     C24,0.608,16,4.903,16,4.903z"/></defs><clipPath id="c"><use xlink:href="#d" overflow="visible"/></clipPath><line clip-path="url(#c)" fill="#000000" stroke="#FFFFFF" stroke-width="2" stroke-miterlimit="10" x1="16" y1="2" x2="16" y2="32"/></g><text transform="matrix(1 0 0 1 3.41 15.6611)" display="inline" fill="#000000" font-family="'Arial-BoldMT'" font-size="11.3948px">A</text><text transform="matrix(1 0 0 1 20.2453 23.0471)" display="inline" fill="#000000" font-family="'Arial-BoldMT'" font-size="11.3948px">B</text></g><g display="none"><path display="inline" d="M16,4.903c0,0-8-4.295-16,0.019V29c0,0,7.906-4.282,16,0c8.094-4.282,16,0,16,0V4.922   C24,0.608,16,4.903,16,4.903z"/><g display="inline"><defs><path id="b" d="M16,4.903c0,0-8-4.295-16,0.019V29c0,0,7.906-4.282,16,0c8.094-4.282,16,0,16,0V4.922     C24,0.608,16,4.903,16,4.903z"/></defs><clipPath id="a"><use xlink:href="#b" overflow="visible"/></clipPath><line clip-path="url(#a)" fill="#000000" stroke="#FFFFFF" stroke-width="2" stroke-miterlimit="10" x1="16" y1="2" x2="16" y2="32"/></g></g><text x="0" y="47" fill="#000000" font-size="5px" font-weight="bold" font-family="'Helvetica Neue', Helvetica, Arial-Unicode, Arial, Sans-serif">Created by AlfredoCreates.com</text><text x="0" y="52" fill="#000000" font-size="5px" font-weight="bold" font-family="'Helvetica Neue', Helvetica, Arial-Unicode, Arial, Sans-serif">from the Noun Project</text></svg>