<svg xmlns="http://www.w3.org/2000/svg" xmlns:xlink="http://www.w3.org/1999/xlink" version="1.1" x="0px" y="0px" viewBox="0 0 32 40" enable-background="new 0 0 32 32" xml:space="preserve"><g display="none"><rect x="-56.545" y="-85.339" display="inline" fill="#000000" width="421.212" height="207"/></g><g display="none"><circle display="inline" fill="#000000" cx="15.99" cy="16" r="16"/><g display="inline"><g><polygon fill="#000000" points="19.188,21.128 16.13,18.136 12.812,21.08 12.812,10.388 13.437,10.388 13.437,19.69      16.151,17.281 18.563,19.642 18.563,10.443 19.188,10.443    "/></g><g><path fill="#000000" d="M10.832,26c-0.245,0-1.002-0.052-1.63-0.633c-0.594-0.55-0.895-1.399-0.895-2.524V8.383     C8.306,7.069,9.375,6,10.689,6h12.998v0.625H10.689c-0.969,0-1.758,0.789-1.758,1.758s0.789,1.759,1.758,1.759h13.005v15.855     H10.912C10.909,25.998,10.881,26,10.832,26z M8.931,9.991v12.852c0,0.944,0.234,1.639,0.695,2.065     c0.555,0.513,1.252,0.465,1.261,0.466l12.182-0.001V10.767h-12.38C9.994,10.767,9.367,10.468,8.931,9.991z"/></g><g><path fill="#000000" d="M22.587,10.618c-0.018-0.016-1.734-1.642-0.057-4.471l0.537,0.319c-1.408,2.377-0.112,3.641-0.056,3.694     L22.587,10.618z"/></g></g></g><g display="none"><polyline display="inline" fill="none" stroke="#000000" stroke-miterlimit="10" points="11.399,7.02 11.399,23.016 16.224,18.734    20.601,23.016 20.601,7.108  "/><path display="inline" fill="none" stroke="#000000" stroke-miterlimit="10" d="M28.299,0.5H7.502C5.68,0.5,4.19,1.991,4.19,3.814   v0c0,1.823,1.491,3.314,3.312,3.314H27.81v24.37H7.859c0,0-3.669,0.286-3.669-4.548s0-23.136,0-23.136"/><path display="inline" fill="none" stroke="#000000" stroke-miterlimit="10" d="M26.878,7.02c0,0-2.507-2.301,0-6.532"/></g><g><path d="M3.939,26.949c0,1.728,0.455,3.025,1.353,3.855c0.938,0.867,2.062,0.946,2.438,0.946c0.076,0,0.121-0.003,0.128-0.004   h20.202V6.878h-1.05l0.038-0.041c-0.095-0.088-2.262-2.182-0.027-6.087h1.278v-0.5H7.502c-1.965,0-3.562,1.599-3.562,3.563V26.949z    M7.502,0.75h18.953c-0.3,0.56-0.517,1.086-0.662,1.578H14.426v0.5h11.238c-0.444,2.074,0.323,3.46,0.767,4.05H7.502   c-1.688,0-3.062-1.375-3.062-3.064S5.813,0.75,7.502,0.75z M11.649,7.378h8.701v15.044l-4.117-4.029l-4.584,4.068V7.378z    M4.439,5.632c0.622,1.044,1.762,1.745,3.062,1.745h3.647v16.194l5.066-4.496l4.635,4.535V7.378h6.71v23.869L7.839,31.248   c-0.012-0.001-1.239,0.084-2.207-0.811c-0.791-0.731-1.192-1.905-1.192-3.488V5.632z"/></g><g display="none"><polyline display="inline" fill="#000000" stroke="#0F8EDB" stroke-width="2" stroke-miterlimit="10" points="13.809,7.81    13.809,23.29 18.469,19.146 22.696,23.29 22.696,7.895  "/><line display="inline" fill="#000000" stroke="#0F8EDB" stroke-width="2" stroke-miterlimit="10" x1="9.125" y1="7.853" x2="9.125" y2="30.997"/><path display="inline" fill="none" stroke="#000000" stroke-width="2" stroke-miterlimit="10" d="M27.877,1H7.793   C6.034,1,4.594,2.443,4.594,4.207v0c0,1.764,1.439,3.207,3.199,3.207h19.613v23.584H8.138c0,0-3.543,0.276-3.543-4.401   s0-22.389,0-22.389"/><path display="inline" fill="none" stroke="#000000" stroke-width="2" stroke-miterlimit="10" d="M26.505,7.31   c0,0-2.421-2.227,0-6.321"/><line display="inline" fill="none" stroke="#000000" stroke-width="2" stroke-miterlimit="10" x1="25.895" y1="3.755" x2="13.625" y2="3.755"/></g><g display="none"><g display="inline"><g><g><g><rect x="5.209" y="1.519" fill="#000000" width="20.292" height="5.375"/></g></g><g><g><path d="M27.043,6.413c-0.358-0.46-1.202-1.935,0.051-4.414h0.783v-2H7.793c-2.315,0-4.199,1.888-4.199,4.207v22.39       c0,1.893,0.522,3.336,1.552,4.288c1.099,1.017,2.395,1.117,2.838,1.117c0.083,0,0.137-0.003,0.153-0.005h20.268V6.413H27.043z        M7.793,6.413c-1.212,0-2.199-0.99-2.199-2.207s0.986-2.207,2.199-2.207h17.117c-0.725,1.9-0.527,3.39-0.126,4.414H7.793z"/></g></g></g><g><g><polyline fill="#000000" points="8.949,6.413 8.949,22.353 14.157,17.753 19.018,22.269 19.018,6.413     "/></g></g></g></g><g display="none"><g display="inline"><g><g><g><rect x="5.209" y="1.519" width="20.292" height="5.375"/></g></g><g><g><path d="M27.043,6.413c-0.358-0.46-1.202-1.935,0.051-4.414h0.783v-2H7.793c-2.315,0-4.199,1.888-4.199,4.207v22.39       c0,1.893,0.522,3.336,1.552,4.288c1.099,1.017,2.395,1.117,2.838,1.117c0.083,0,0.137-0.003,0.153-0.005h20.268V6.413H27.043z        M7.793,6.413c-1.212,0-2.199-0.99-2.199-2.207s0.986-2.207,2.199-2.207h17.117c-0.725,1.9-0.527,3.39-0.126,4.414H7.793z"/></g></g></g><g><g><polyline points="8.949,6.413 8.949,22.353 14.157,17.753 19.018,22.269 19.018,6.413     "/></g></g></g></g><text x="0" y="47" fill="#000000" font-size="5px" font-weight="bold" font-family="'Helvetica Neue', Helvetica, Arial-Unicode, Arial, Sans-serif">Created by AlfredoCreates.com</text><text x="0" y="52" fill="#000000" font-size="5px" font-weight="bold" font-family="'Helvetica Neue', Helvetica, Arial-Unicode, Arial, Sans-serif">from the Noun Project</text></svg>