<?xml version="1.0" ?><!DOCTYPE svg  PUBLIC '-//W3C//DTD SVG 1.1//EN'  'http://www.w3.org/Graphics/SVG/1.1/DTD/svg11.dtd'><svg enable-background="new 0 0 128 128" id="Слой_1" version="1.1" viewBox="0 0 128 128" xml:space="preserve" xmlns="http://www.w3.org/2000/svg" xmlns:xlink="http://www.w3.org/1999/xlink"><g><g><path d="M83.377,110.5H44.623c-5.894,0-10.689-4.654-10.689-10.375V35.324c0-0.552,0.448-1,1-1s1,0.448,1,1v64.801    c0,4.618,3.898,8.375,8.689,8.375h38.754c4.791,0,8.689-3.757,8.689-8.375V35.324c0-0.552,0.448-1,1-1s1,0.448,1,1v64.801    C94.066,105.846,89.271,110.5,83.377,110.5z" fill="#323638"/></g><g><path d="M28.999,36.07c-0.174,0-0.351-0.045-0.512-0.142c-0.474-0.283-0.629-0.897-0.346-1.371l3.028-5.07    C31.35,29.185,31.676,29,32.028,29h63.944c0.348,0,0.671,0.181,0.853,0.478l3.028,4.943c0.289,0.471,0.141,1.087-0.33,1.375    c-0.471,0.289-1.086,0.141-1.375-0.33L95.412,31H32.595l-2.737,4.583C29.671,35.896,29.339,36.07,28.999,36.07z" fill="#323638"/></g><g><path d="M75.499,30.329c-0.552,0-1-0.448-1-1c0-5.419-4.709-9.829-10.499-9.829s-10.499,4.409-10.499,9.829    c0,0.552-0.448,1-1,1s-1-0.448-1-1C51.501,22.806,57.108,17.5,64,17.5s12.499,5.306,12.499,11.829    C76.499,29.881,76.051,30.329,75.499,30.329z" fill="#323638"/></g><g><path d="M64,101c-0.552,0-1-0.448-1-1V43c0-0.552,0.448-1,1-1s1,0.448,1,1v57C65,100.552,64.552,101,64,101z" fill="#323638"/></g><g><path d="M77,101c-0.552,0-1-0.448-1-1V43c0-0.552,0.448-1,1-1s1,0.448,1,1v57C78,100.552,77.552,101,77,101z" fill="#323638"/></g><g><path d="M51,101c-0.552,0-1-0.448-1-1V43c0-0.552,0.448-1,1-1s1,0.448,1,1v57C52,100.552,51.552,101,51,101z" fill="#323638"/></g></g></svg>